# xmcd CD database file
#
# Track frame offsets:
#	150
#	31750
#	61447
#	82242
#	101017
#	116312
#	141420
#	167922
#
# Disc length: 2636 seconds
#
# Revision: 0
# Processed by: cddbd v1.5.2PL0 Copyright (c) Steve Scherf et al.
# Submitted via: CDex 1.70beta2
#
DISCID=6b0a4a08
DTITLE=音響 - Karuizawa=軽井沢
DYEAR=1993
DGENRE=New Age
TTITLE0=信濃路の朝
TTITLE1=小川のせせらぎ
TTITLE2=カッコウ
TTITLE3=川の流れ
TTITLE4=白糸の滝
TTITLE5=鳥達の午後
TTITLE6=せせらぎ
TTITLE7=初夏の森
EXTD=YEAR: 1993
EXTT0=
EXTT1=
EXTT2=
EXTT3=
EXTT4=
EXTT5=
EXTT6=
EXTT7=
PLAYORDER=
